<svg id="XMLID_1_" xmlns="http://www.w3.org/2000/svg" width="59.432" height="29.735" viewBox="0 0 59.432 29.735">
  <g id="XMLID_2_" transform="translate(38.314 7.677)">
    <path id="XMLID_3_" d="M183.339,133.357h-6.548a.487.487,0,0,1,0-.947H183.3c.248-.066,1.969-.619,2.045-3.188.077-2.547-1.071-2.8-1.257-2.828h-4.2c-1.686-.357-2.038-2.288-1.988-3.314a4.06,4.06,0,0,1,2.7-4.119.325.325,0,0,1,.079-.009h5.9a.487.487,0,0,1,0,.947h-5.851a3.143,3.143,0,0,0-2.075,3.194v.035c0,.082-.082,1.992,1.336,2.32h4.148c.02,0,2.073.2,1.966,3.81-.084,2.794-1.795,3.9-2.69,4.094A.647.647,0,0,1,183.339,133.357Z" transform="translate(-176.42 -118.95)" fill="#3760a6"/>
  </g>
  <g id="XMLID_4_" transform="translate(49.145 7.869)">
    <path id="XMLID_5_" d="M228.534,133.824h-6.042a.169.169,0,0,1-.04,0,2.718,2.718,0,0,1-2.345-2.708,77.579,77.579,0,0,1,1.069-8.39.6.6,0,0,1,.015-.063c.037-.126.925-3.1,2.893-3.1h4.346a.3.3,0,0,1,.1.019,2.91,2.91,0,0,1,1.859,2.661,43.436,43.436,0,0,1-.394,4.536.409.409,0,0,1-.362.391l-8.409.088a31.172,31.172,0,0,0-.374,3.835,1.9,1.9,0,0,0,1.664,1.787h6.02a.487.487,0,0,1,0,.947Zm-6.639-10.865c-.042.243-.29,1.7-.535,3.346l7.953-.085a39.063,39.063,0,0,0,.332-3.984,2.017,2.017,0,0,0-1.277-1.73h-4.287C222.711,120.507,221.979,122.691,221.895,122.96Z" transform="translate(-220.107 -119.56)" fill="#3760a6"/>
  </g>
  <g id="XMLID_8_" transform="translate(26.973 7.803)">
    <path id="XMLID_9_" d="M131.048,139.893a.483.483,0,0,1-.067-.006.476.476,0,0,1-.3-.549s.593-4.17,1.188-8.34c.3-2.086.6-4.17.823-5.735.114-.783.208-1.436.278-1.891.057-.379.094-.625.134-.789l-.007,0c.419-1.461,1.728-3.027,2.692-3.223a.366.366,0,0,1,.1,0c.245.009,2.6,0,4.16,0h0a2.73,2.73,0,0,1,2.063,2.86c0,.016,0,.035,0,.051l-1.036,8.062a.291.291,0,0,1-.01.051c-.022.1-.568,2.481-2.38,3.176a.263.263,0,0,1-.1.019l-3.82.139a.212.212,0,0,1-.045,0,3.379,3.379,0,0,1-2.239-1.73c-.412,2.879-.823,5.764-1.074,7.528A.4.4,0,0,1,131.048,139.893Zm1.634-9.271c.756,1.834,1.924,2.109,2.1,2.14l3.741-.136a3.834,3.834,0,0,0,1.827-2.487l1.029-8a1.984,1.984,0,0,0-1.408-1.84c-.273,0-1.143.006-2.016.006h-1.445c-.27,0-.466,0-.607-.013a4.306,4.306,0,0,0-2.1,2.6C133.738,123.261,133.232,126.771,132.682,130.622Z" transform="translate(-130.675 -119.35)" fill="#3760a6"/>
  </g>
  <path id="XMLID_12_" d="M105.633,110.159a1.067,1.067,0,1,1-1.036-1.319A1.2,1.2,0,0,1,105.633,110.159Z" transform="translate(-83.31 -104.355)" fill="#ebb532"/>
  <ellipse id="XMLID_13_" cx="1.036" cy="1.319" rx="1.036" ry="1.319" transform="translate(17.9)" fill="#ebb532"/>
  <path id="XMLID_15_" d="M86.635,110.159A1.068,1.068,0,1,1,85.6,108.84,1.2,1.2,0,0,1,86.635,110.159Z" transform="translate(-69.02 -104.354)" fill="#ebb532"/>
  <ellipse id="XMLID_16_" cx="1.036" cy="1.319" rx="1.036" ry="1.319" transform="translate(20.129 22.472)" fill="#ebb532"/>
  <ellipse id="XMLID_17_" cx="1.036" cy="1.319" rx="1.036" ry="1.319" transform="translate(17.895 18.258)" fill="#ebb532"/>
  <ellipse id="XMLID_21_" cx="0.858" cy="1.092" rx="0.858" ry="1.092" transform="translate(13.497 18.485)" fill="#ebb532"/>
  <path id="XMLID_22_" d="M87.266,167.632a.883.883,0,1,1-.858-1.092A1,1,0,0,1,87.266,167.632Z" transform="translate(-69.765 -143.841)" fill="#ebb532"/>
  <ellipse id="XMLID_23_" cx="0.858" cy="1.092" rx="0.858" ry="1.092" transform="translate(13.435 27.323)" fill="#ebb532"/>
  <ellipse id="XMLID_24_" cx="0.664" cy="0.846" rx="0.664" ry="0.846" transform="translate(11.409 22.945)" fill="#ebb532"/>
  <ellipse id="XMLID_25_" cx="0.664" cy="0.846" rx="0.664" ry="0.846" transform="translate(3.233 14.094)" fill="#ebb532"/>
  <ellipse id="XMLID_26_" cx="0.664" cy="0.846" rx="0.664" ry="0.846" transform="translate(4.425 9.583)" fill="#ebb532"/>
  <path id="XMLID_27_" d="M50.149,111.186a.684.684,0,1,1-.664-.846A.772.772,0,0,1,50.149,111.186Z" transform="translate(-42.141 -105.381)" fill="#ebb532"/>
  <path id="XMLID_28_" d="M59.359,97.286a.684.684,0,1,1-.664-.846A.772.772,0,0,1,59.359,97.286Z" transform="translate(-49.068 -95.869)" fill="#ebb532"/>
  <ellipse id="XMLID_29_" cx="0.664" cy="0.846" rx="0.664" ry="0.846" transform="translate(9.027 27.569)" fill="#ebb532"/>
  <ellipse id="XMLID_30_" cx="0.664" cy="0.846" rx="0.664" ry="0.846" transform="translate(6.741 22.945)" fill="#ebb532"/>
  <ellipse id="XMLID_32_" cx="0.664" cy="0.846" rx="0.664" ry="0.846" transform="translate(4.393 18.731)" fill="#ebb532"/>
  <ellipse id="XMLID_33_" cx="0.342" cy="0.436" rx="0.342" ry="0.436" transform="translate(3.459 23.355)" fill="#ebb532"/>
  <ellipse id="XMLID_34_" cx="0.342" cy="0.436" rx="0.342" ry="0.436" transform="translate(1.319 19.141)" fill="#ebb532"/>
  <path id="XMLID_38_" d="M22.564,140.776a.352.352,0,1,1-.342-.436A.394.394,0,0,1,22.564,140.776Z" transform="translate(-21.88 -125.911)" fill="#ebb532"/>
  <ellipse id="XMLID_39_" cx="0.342" cy="0.436" rx="0.342" ry="0.436" transform="translate(1.222 10.003)" fill="#ebb532"/>
  <ellipse id="XMLID_40_" cx="0.342" cy="0.436" rx="0.342" ry="0.436" transform="translate(3.54 5.413)" fill="#ebb532"/>
  <ellipse id="XMLID_41_" cx="0.858" cy="1.092" rx="0.858" ry="1.092" transform="translate(8.801 18.485)" fill="#ebb532"/>
  <ellipse id="XMLID_46_" cx="0.858" cy="1.092" rx="0.858" ry="1.092" transform="translate(6.386 13.86)" fill="#ebb532"/>
  <path id="XMLID_47_" d="M58.966,125.3a.883.883,0,1,1-.858-1.092A1,1,0,0,1,58.966,125.3Z" transform="translate(-48.481 -114.873)" fill="#ebb532"/>
  <ellipse id="XMLID_48_" cx="0.858" cy="1.092" rx="0.858" ry="1.092" transform="translate(11.151 4.713)" fill="#ebb532"/>
  <ellipse id="XMLID_49_" cx="0.858" cy="1.092" rx="0.858" ry="1.092" transform="translate(13.403 0.246)" fill="#ebb532"/>
  <ellipse id="XMLID_50_" cx="1.036" cy="1.319" rx="1.036" ry="1.319" transform="translate(10.911 13.633)" fill="#ebb532"/>
  <ellipse id="XMLID_51_" cx="1.036" cy="1.319" rx="1.036" ry="1.319" transform="translate(13.227 9.11)" fill="#ebb532"/>
  <ellipse id="XMLID_52_" cx="1.036" cy="1.319" rx="1.036" ry="1.319" transform="translate(17.895 27.096)" fill="#ebb532"/>
  <rect id="XMLID_70_" width="15.351" height="0.811" transform="translate(12.475 14.485)" fill="#ebb532"/>
  <rect id="XMLID_66_" width="4.827" height="0.811" transform="translate(15.029 10.025)" fill="#ebb532"/>
  <path id="XMLID_69_" d="M102.278,131.614,99.62,126.39h.744l2.655,5.224Z" transform="translate(-80.347 -116.365)" fill="#ebb532"/>
  <rect id="XMLID_68_" width="2.462" height="0.811" transform="translate(19.742 19.17)" fill="#ebb532"/>
  <path id="XMLID_67_" d="M109.07,147.672l2.2-4.732h.637l-2.2,4.732Z" transform="translate(-87.454 -127.691)" fill="#ebb532"/>
</svg>
