<svg id="Componente_35_2" data-name="Componente 35 – 2" xmlns="http://www.w3.org/2000/svg" width="135.75" height="24.316" viewBox="0 0 135.75 24.316">
  <path id="visa-logo" d="M509.649,319.677l-4.3,10.257h-2.8l-2.116-8.186a1.126,1.126,0,0,0-.631-.9,11.05,11.05,0,0,0-2.618-.873l.062-.3h4.515a1.237,1.237,0,0,1,1.224,1.046l1.117,5.935,2.762-6.981h2.788Zm10.99,6.908c.012-2.706-3.743-2.857-3.717-4.065.008-.368.359-.759,1.125-.859a5,5,0,0,1,2.616.459l.467-2.175a7.11,7.11,0,0,0-2.483-.455c-2.622,0-4.468,1.394-4.483,3.39-.018,1.478,1.318,2.3,2.323,2.791,1.034.5,1.38.825,1.376,1.274-.008.689-.824.993-1.589,1a5.553,5.553,0,0,1-2.726-.648l-.48,2.248a8.035,8.035,0,0,0,2.951.544c2.788,0,4.611-1.376,4.62-3.509m6.926,3.349h2.454l-2.142-10.257h-2.265a1.207,1.207,0,0,0-1.13.753l-3.981,9.5h2.785l.553-1.532h3.4ZM524.6,326.3l1.4-3.851.8,3.851Zm-11.163-6.624-2.194,10.257h-2.654l2.2-10.257Z" transform="translate(-458.181 -312.49)" fill="#043b9a"/>
  <g id="master_card_logo" transform="translate(0 1)">
    <rect id="Rectángulo_19" data-name="Rectángulo 19" width="31.834" height="22.558" transform="translate(0 0)" fill="none"/>
    <g id="Grupo_8" data-name="Grupo 8" transform="translate(3.741 3.757)">
      <rect id="Rectángulo_20" data-name="Rectángulo 20" width="6.579" height="11.824" transform="translate(8.877 1.611)" fill="#ff5f00"/>
      <path id="Trazado_58" data-name="Trazado 58" d="M27.2,25.519a7.5,7.5,0,0,1,2.872-5.911,7.519,7.519,0,1,0,0,11.824A7.511,7.511,0,0,1,27.2,25.519Z" transform="translate(-17.909 -17.997)" fill="#eb001b"/>
      <path id="Trazado_59" data-name="Trazado 59" d="M88.327,25.511A7.519,7.519,0,0,1,76.16,31.422a7.521,7.521,0,0,0,0-11.824,7.521,7.521,0,0,1,12.167,5.913Z" transform="translate(-63.993 -17.989)" fill="#f79e1b"/>
      <path id="Trazado_60" data-name="Trazado 60" d="M130.4,75.2V74.96h.1v-.05h-.249v.05h.1V75.2Zm.482,0V74.91h-.075l-.088.2-.088-.2h-.075V75.2h.054v-.219l.081.19h.056l.081-.19V75.2h.052Z" transform="translate(-106.785 -63.021)" fill="#f79e1b"/>
    </g>
  </g>
  <g id="diners-clubvertical-seeklogo" transform="translate(79 4)">
    <path id="Trazado_967" data-name="Trazado 967" d="M236.467,136.78h4.908a8.8,8.8,0,0,1,4.777,1.653,8.1,8.1,0,0,1,.053,13.282A9.092,9.092,0,0,1,241.3,153.5h-4.83a8.714,8.714,0,0,1-5.853-2.782,8.6,8.6,0,0,1-2.126-5.578,8.812,8.812,0,0,1,2.362-5.919A8.48,8.48,0,0,1,236.467,136.78Z" transform="translate(-228.485 -136.78)" fill="#0078bd"/>
    <circle id="Elipse_10" data-name="Elipse 10" cx="7.704" cy="7.704" r="7.704" transform="matrix(0.997, -0.083, 0.083, 0.997, 0.166, 1.296)" fill="#fff"/>
    <path id="Trazado_968" data-name="Trazado 968" d="M294.143,202.46v9.055a4.842,4.842,0,0,1,0-9.055Z" transform="translate(-287.395 -198.654)" fill="#0078bd"/>
    <path id="Trazado_969" data-name="Trazado 969" d="M404.97,202.46v9.055a4.842,4.842,0,0,0,0-9.055Z" transform="translate(-394.742 -198.654)" fill="#0078bd"/>
  </g>
  <g id="american-express-seeklogo" transform="translate(109.999)">
    <path id="Trazado_971" data-name="Trazado 971" d="M945.736,1294.848h-.081c0-.041-.021-.1-.021-.122s0-.06-.06-.06h-.122v.182h-.06v-.425h.182c.081,0,.142.021.142.1a.119.119,0,0,1-.041.1.107.107,0,0,1,.041.081v.081c0,.02,0,.02.021.02v.041Zm-.081-.3c0-.06-.041-.06-.06-.06h-.142v.122h.122c.04,0,.081-.022.081-.062Zm.343.08a.453.453,0,0,0-.464-.445.448.448,0,0,0-.444.445.454.454,0,1,0,.908,0Zm-.06,0a.388.388,0,0,1-.4.384.371.371,0,0,1-.384-.384.383.383,0,0,1,.384-.384.4.4,0,0,1,.4.384Z" transform="translate(-945.09 -1270.773)" fill="#0072a2" fill-rule="evenodd"/>
    <path id="Trazado_972" data-name="Trazado 972" d="M979.427,1150.126c0,.607-.384.889-1.071.889h-1.314v-.607h1.314a.42.42,0,0,0,.262-.06.255.255,0,0,0,.081-.182.316.316,0,0,0-.081-.2.352.352,0,0,0-.243-.06c-.627-.021-1.416.021-1.416-.869a.852.852,0,0,1,.97-.848h1.354v.607h-1.253a.469.469,0,0,0-.262.041.291.291,0,0,0-.1.223.219.219,0,0,0,.142.2,1,1,0,0,0,.262.041h.363a1.142,1.142,0,0,1,.788.223.843.843,0,0,1,.2.6Zm-2.85-.607a1.143,1.143,0,0,0-.788-.223h-.363a1,1,0,0,1-.262-.041.221.221,0,0,1-.142-.2.239.239,0,0,1,.1-.223.472.472,0,0,1,.262-.041h1.253v-.607h-1.354c-.728,0-.97.444-.97.848,0,.889.788.848,1.415.869a.36.36,0,0,1,.243.06.308.308,0,0,1,.081.2.258.258,0,0,1-.081.182.454.454,0,0,1-.262.06H974.4v.607h1.314c.687,0,1.071-.283,1.071-.889a.873.873,0,0,0-.2-.6Zm-2.588.91h-1.6v-.565h1.556v-.566h-1.556v-.526h1.6v-.586h-2.264v2.83h2.264v-.586Zm-2.991-2.1a1.7,1.7,0,0,0-.829-.142h-1.556v2.829h.687v-1.031h.728c.243,0,.384.02.485.122a.9.9,0,0,1,.122.566v.343h.667v-.545a.939.939,0,0,0-.1-.526.794.794,0,0,0-.344-.243.778.778,0,0,0,.485-.747.635.635,0,0,0-.343-.624Zm-3.841-.142H965l-.869.93-.829-.93h-2.728v2.829h2.689l.869-.93.829.93h1.314v-.949h.848c.586,0,1.172-.161,1.172-.949,0-.768-.608-.931-1.133-.931Zm3.294,1.172a.826.826,0,0,1-.324.041l-.829.021v-.646h.829a.554.554,0,0,1,.324.06.26.26,0,0,1,.142.243.352.352,0,0,1-.142.281Zm-3.294.142h-.889v-.728h.889c.243,0,.4.1.4.344a.368.368,0,0,1-.4.384Zm-2.608.1,1.051-1.112v2.284l-1.051-1.172Zm-1.637.829h-1.678v-.565h1.5v-.566h-1.5v-.526h1.7l.747.829-.768.828Zm14.634-4.286h-.97l-1.273-2.122v2.122h-1.374l-.262-.627h-1.415l-.262.627H971.2a1.461,1.461,0,0,1-.99-.324,1.479,1.479,0,0,1-.344-1.071,1.461,1.461,0,0,1,.363-1.112,1.372,1.372,0,0,1,1.032-.324h.646v.607h-.646a.721.721,0,0,0-.526.161.914.914,0,0,0-.182.646,1.007,1.007,0,0,0,.182.667.673.673,0,0,0,.465.142h.3l.97-2.223h1.011l1.133,2.668v-2.667h1.051l1.193,1.961v-1.961h.687v2.83Zm-8.024-2.83h-.687v2.83h.687v-2.83Zm-1.436.122a1.623,1.623,0,0,0-.809-.122h-1.556v2.83h.667v-1.031h.728a.693.693,0,0,1,.506.122.856.856,0,0,1,.1.545v.363h.687v-.566a.754.754,0,0,0-.122-.506.854.854,0,0,0-.324-.243.8.8,0,0,0,.485-.747.7.7,0,0,0-.363-.645Zm-2.85,2.122H963.66v-.566h1.556v-.586H963.66v-.506h1.577v-.586h-2.264v2.83h2.264v-.586Zm-2.77-2.243h-1.112l-.829,1.921-.889-1.921h-1.092v2.668l-1.152-2.668h-1.011l-1.213,2.83h.728l.262-.627h1.416l.262.627h1.374v-2.223l.991,2.223h.586l.99-2.223v2.223h.687v-2.83Zm10.956,1.6-.464-1.112-.465,1.112Zm-5.863-.445a.624.624,0,0,1-.344.06h-.829v-.626h.829a.886.886,0,0,1,.344.041.3.3,0,0,1,.122.262.275.275,0,0,1-.122.262Zm-11.157.445.465-1.112.464,1.112Zm22.862-10.471H955.15v10.188l.829-1.88h1.758l.243.464v-.464h2.062l.464,1.011.444-1.011h6.569a1.189,1.189,0,0,1,.768.223v-.223h1.8v.223a2.417,2.417,0,0,1,1.133-.223h2.608l.243.464v-.464h1.921l.283.464v-.464h1.88v3.962h-1.9l-.363-.607v.607h-2.365l-.262-.646h-.586l-.262.646h-1.232a2.42,2.42,0,0,1-1.092-.243v.243h-2.931v-.91c0-.122-.021-.142-.1-.142h-.1v1.051H961.3v-.505l-.2.505H959.9l-.2-.485v.485h-2.287l-.243-.646h-.586l-.262.646H955.15v11.947h24.114V1151.4a2.472,2.472,0,0,1-.99.182h-1.758v-.243a1.564,1.564,0,0,1-.91.243h-5.539v-.91c0-.122-.021-.122-.122-.122h-.1v1.032h-1.82v-1.071a2.21,2.21,0,0,1-.95.142h-.2v.93h-2.223l-.526-.607-.586.607h-3.578v-3.962H963.6l.526.607.566-.607h2.445a1.523,1.523,0,0,1,.95.243v-.243h2.183a1.734,1.734,0,0,1,.93.243v-.243h3.3v.243a1.349,1.349,0,0,1,.829-.243h1.839v.243a1.456,1.456,0,0,1,.848-.243h1.253v-13.18Z" transform="translate(-953.676 -1134.44)" fill="#0072a2" fill-rule="evenodd"/>
  </g>
</svg>
