<svg id="PLP-Logo-color" xmlns="http://www.w3.org/2000/svg" width="204.975" height="32.356" viewBox="0 0 204.975 32.356">
  <path id="Trazado_42" data-name="Trazado 42" d="M21.671,55.148A2.374,2.374,0,0,1,19.3,57.524H16.9V40.08c0-3.265.966-5.505,2.878-6.684a11.549,11.549,0,0,1,6.239-1.8,10.022,10.022,0,0,1,3.535.657,6.469,6.469,0,0,1,2.84,1.932A11.1,11.1,0,0,1,34.5,41.2a11.351,11.351,0,0,1-2.106,7.147A6.588,6.588,0,0,1,27,51.014a7.126,7.126,0,0,1-3.091-.637,5.361,5.361,0,0,1-2.241-2.164v6.935Zm7.978-13.735A7.253,7.253,0,0,0,28.606,37.2a3.454,3.454,0,0,0-3.013-1.468A3.386,3.386,0,0,0,22.657,37.2a7.16,7.16,0,0,0-.985,4.211,6.42,6.42,0,0,0,1.043,4,3.454,3.454,0,0,0,3.013,1.468,3.354,3.354,0,0,0,2.878-1.468,6.816,6.816,0,0,0,1.043-4" transform="translate(-16.9 -26.558)" fill="#24add6"/>
  <path id="Trazado_43" data-name="Trazado 43" d="M220.3,44.485h4.771a2.613,2.613,0,0,0,1.043,2.106,5.012,5.012,0,0,0,2.8.7,4.421,4.421,0,0,0,2.164-.483,1.5,1.5,0,0,0,.85-1.333c0-.85-.985-1.468-2.936-1.893a13.153,13.153,0,0,1-1.893-.425c-2.473-.6-4.134-1.333-4.984-2.164a4.358,4.358,0,0,1-1.41-3.361,5.616,5.616,0,0,1,2.028-4.424,8.711,8.711,0,0,1,5.467-1.6,9.608,9.608,0,0,1,5.814,1.6,6.093,6.093,0,0,1,2.164,4.559h-3.013a2.228,2.228,0,0,1-2.028-1.2l-.56-.56a3.756,3.756,0,0,0-2.318-.637,4.088,4.088,0,0,0-2.106.425,1.412,1.412,0,0,0-.637,1.256c0,.753,1.217,1.372,3.651,1.893a4.9,4.9,0,0,0,.734.212,3.394,3.394,0,0,0,.6.077,13.041,13.041,0,0,1,4.984,2.106,4.437,4.437,0,0,1,1.333,3.361,5.644,5.644,0,0,1-2.241,4.771c-1.41,1.024-3.5,1.545-6.3,1.545-2.666,0-4.655-.541-5.95-1.6a5.658,5.658,0,0,1-2.028-4.694Z" transform="translate(-181.009 -26.558)" fill="#24add6"/>
  <path id="Trazado_44" data-name="Trazado 44" d="M421.2,5.5h2.531a2.332,2.332,0,0,1,1.681.657,2.175,2.175,0,0,1,.7,1.642v21.79H421.2Z" transform="translate(-343.101 -5.5)" fill="#fff"/>
  <path id="Trazado_45" data-name="Trazado 45" d="M567.252,55.148a2.374,2.374,0,0,1-2.376,2.376H562.5V40.08c0-3.265.966-5.505,2.878-6.684a11.549,11.549,0,0,1,6.239-1.8,10.475,10.475,0,0,1,3.535.657,6.467,6.467,0,0,1,2.84,1.932A11.1,11.1,0,0,1,580.1,41.2a11.35,11.35,0,0,1-2.106,7.147,6.588,6.588,0,0,1-5.389,2.666,7.126,7.126,0,0,1-3.091-.637,5.362,5.362,0,0,1-2.241-2.164v6.935Zm7.978-13.735a7.253,7.253,0,0,0-1.043-4.211,3.454,3.454,0,0,0-3.014-1.468,3.386,3.386,0,0,0-2.936,1.468,7.119,7.119,0,0,0-.985,4.211,6.42,6.42,0,0,0,1.043,4,3.454,3.454,0,0,0,3.013,1.468,3.354,3.354,0,0,0,2.878-1.468,6.817,6.817,0,0,0,1.043-4" transform="translate(-457.105 -26.558)" fill="#24add6"/>
  <path id="Trazado_46" data-name="Trazado 46" d="M999.327,48.213a5.247,5.247,0,0,1-2.241,2.164,7.066,7.066,0,0,1-3.091.637,6.537,6.537,0,0,1-5.389-2.666A11.351,11.351,0,0,1,986.5,41.2a11.135,11.135,0,0,1,2.106-7.012,6.469,6.469,0,0,1,2.84-1.932,10.1,10.1,0,0,1,3.535-.657,11.55,11.55,0,0,1,6.24,1.8c1.912,1.2,2.878,3.419,2.878,6.684V51.13h-2.376a2.374,2.374,0,0,1-2.376-2.376v-.541Zm-6.935-2.82a3.331,3.331,0,0,0,2.878,1.468,3.454,3.454,0,0,0,3.013-1.468,6.42,6.42,0,0,0,1.043-4,7.161,7.161,0,0,0-.985-4.211,3.386,3.386,0,0,0-2.936-1.468,3.454,3.454,0,0,0-3.014,1.468,7.214,7.214,0,0,0-1.043,4.211,6.471,6.471,0,0,0,1.043,4" transform="translate(-799.201 -26.558)" fill="#24add6"/>
  <path id="Trazado_47" data-name="Trazado 47" d="M131.227,48.213a5.247,5.247,0,0,1-2.241,2.164,7.067,7.067,0,0,1-3.091.637,6.537,6.537,0,0,1-5.389-2.666A11.351,11.351,0,0,1,118.4,41.2a11.135,11.135,0,0,1,2.106-7.012,6.468,6.468,0,0,1,2.84-1.932,10.1,10.1,0,0,1,3.535-.657,11.549,11.549,0,0,1,6.239,1.8c1.912,1.2,2.878,3.419,2.878,6.684V51.13h-2.376a2.374,2.374,0,0,1-2.376-2.376v-.541Zm-6.935-2.82a3.331,3.331,0,0,0,2.878,1.468,3.454,3.454,0,0,0,3.013-1.468,6.42,6.42,0,0,0,1.043-4,7.16,7.16,0,0,0-.985-4.211,3.386,3.386,0,0,0-2.936-1.468,3.454,3.454,0,0,0-3.014,1.468,7.211,7.211,0,0,0-1.043,4.211,6.6,6.6,0,0,0,1.043,4" transform="translate(-98.793 -26.558)" fill="#24add6"/>
  <path id="Trazado_48" data-name="Trazado 48" d="M327.727,48.213a5.247,5.247,0,0,1-2.241,2.164,7.066,7.066,0,0,1-3.091.637,6.537,6.537,0,0,1-5.389-2.666A11.47,11.47,0,0,1,314.9,41.2a11.134,11.134,0,0,1,2.106-7.012,6.468,6.468,0,0,1,2.84-1.932,10.1,10.1,0,0,1,3.535-.657,11.549,11.549,0,0,1,6.239,1.8c1.912,1.178,2.878,3.4,2.878,6.684V51.13h-2.376a2.374,2.374,0,0,1-2.376-2.376v-.541Zm-6.935-2.82a3.331,3.331,0,0,0,2.878,1.468,3.454,3.454,0,0,0,3.014-1.468,6.42,6.42,0,0,0,1.043-4,7.16,7.16,0,0,0-.985-4.211,3.386,3.386,0,0,0-2.936-1.468,3.454,3.454,0,0,0-3.014,1.468,7.211,7.211,0,0,0-1.043,4.211,6.47,6.47,0,0,0,1.043,4" transform="translate(-257.335 -26.558)" fill="#24add6"/>
  <path id="Trazado_49" data-name="Trazado 49" d="M471.527,48.213a5.248,5.248,0,0,1-2.241,2.164,7.066,7.066,0,0,1-3.091.637,6.537,6.537,0,0,1-5.389-2.666A11.351,11.351,0,0,1,458.7,41.2a11.135,11.135,0,0,1,2.106-7.012,6.468,6.468,0,0,1,2.84-1.932,10.1,10.1,0,0,1,3.535-.657,11.55,11.55,0,0,1,6.239,1.8c1.912,1.2,2.878,3.419,2.878,6.684V51.13h-2.376a2.374,2.374,0,0,1-2.376-2.376v-.541Zm-6.935-2.82a3.331,3.331,0,0,0,2.878,1.468,3.454,3.454,0,0,0,3.014-1.468,6.42,6.42,0,0,0,1.043-4,7.161,7.161,0,0,0-.985-4.211,3.386,3.386,0,0,0-2.936-1.468,3.453,3.453,0,0,0-3.013,1.468,7.211,7.211,0,0,0-1.043,4.211,6.734,6.734,0,0,0,1.043,4" transform="translate(-373.357 -26.558)" fill="#fff"/>
  <path id="Trazado_50" data-name="Trazado 50" d="M675.227,48.213a5.247,5.247,0,0,1-2.241,2.164,7.067,7.067,0,0,1-3.091.637,6.538,6.538,0,0,1-5.39-2.666A11.351,11.351,0,0,1,662.4,41.2a11.135,11.135,0,0,1,2.105-7.012,6.469,6.469,0,0,1,2.84-1.932,10.1,10.1,0,0,1,3.535-.657,11.549,11.549,0,0,1,6.24,1.8c1.912,1.2,2.878,3.419,2.878,6.684V51.13h-2.376a2.374,2.374,0,0,1-2.376-2.376v-.541Zm-6.935-2.82a3.331,3.331,0,0,0,2.878,1.468,3.454,3.454,0,0,0,3.013-1.468,6.42,6.42,0,0,0,1.043-4,7.159,7.159,0,0,0-.985-4.211,3.386,3.386,0,0,0-2.936-1.468,3.454,3.454,0,0,0-3.014,1.468,7.212,7.212,0,0,0-1.043,4.211,6.47,6.47,0,0,0,1.043,4" transform="translate(-537.708 -26.558)" fill="#24add6"/>
  <path id="Trazado_51" data-name="Trazado 51" d="M860,33.7h2.531a2.374,2.374,0,0,1,2.376,2.376V52.341H860Z" transform="translate(-697.137 -28.253)" fill="#24add6"/>
  <path id="Trazado_52" data-name="Trazado 52" d="M773.449,49.365v-1.2a5.36,5.36,0,0,1-3.4,2.453,6.924,6.924,0,0,1-4.231-.348,7.815,7.815,0,0,1-3.612-3.129,10.705,10.705,0,0,1-1.507-5.988,11.681,11.681,0,0,1,1.99-7.051c1.333-1.8,3.477-2.7,6.413-2.7a11.4,11.4,0,0,1,6.239,1.816c1.913,1.217,2.878,3.458,2.878,6.722v9.929c0,3.265-.966,5.505-2.878,6.684a11.53,11.53,0,0,1-6.239,1.777c-4.308,0-6.954-2.009-8-6.027h5.119a3.575,3.575,0,0,0,1.719,1.507,3.742,3.742,0,0,0,2.318.29,3.854,3.854,0,0,0,2.106-1.372,5.593,5.593,0,0,0,1.082-3.361m-7.978-8.055c0,3.226.927,5,2.8,5.37,1.874.348,3.245-.077,4.134-1.294a5.257,5.257,0,0,0,.908-2.415,10.291,10.291,0,0,0,.039-3.265,6.528,6.528,0,0,0-1.159-2.878,3.058,3.058,0,0,0-2.666-1.256A3.225,3.225,0,0,0,766.3,37.33a9.051,9.051,0,0,0-.831,3.979" transform="translate(-617.019 -26.397)" fill="#24add6"/>
  <path id="Trazado_53" data-name="Trazado 53" d="M909.965,50.647h-2.453a2.254,2.254,0,0,1-2.376-2.376V38.747a2.9,2.9,0,0,0-1.024-2.453,3.616,3.616,0,0,0-2.28-.773,3.472,3.472,0,0,0-2.241.773,2.934,2.934,0,0,0-.985,2.453V50.666H893.7V39.733q0-4.752,2.492-6.375A10.858,10.858,0,0,1,901.7,31.6a10.7,10.7,0,0,1,5.679,1.6c1.719,1.082,2.589,3.245,2.589,6.51Z" transform="translate(-724.327 -26.558)" fill="#24add6"/>
  <path id="Trazado_54" data-name="Trazado 54" d="M880.656,147.548l-.657-.657c-2.859-2.859-5.969-2.125-10.3-1.12a35.67,35.67,0,0,1-8.77,1.236l-1.333-3.554a47.785,47.785,0,0,0,9.659-1.024c4.288-1,8.017-1.874,11.436,1.024,3.651-2.9,7.186-2.067,11.243-1.082a50.177,50.177,0,0,0,9.852,1.082l-1.372,3.554a37.769,37.769,0,0,1-8.924-1.314c-4.23-1.024-7.012-1.681-10.161,1.217Z" transform="translate(-696.814 -115.192)" fill="#fff"/>
  <path id="Trazado_55" data-name="Trazado 55" d="M860.2,7.2h2.473a2.278,2.278,0,0,1,1.661.7,2.247,2.247,0,0,1,.7,1.661v1.449H860.2Z" transform="translate(-697.298 -6.872)" fill="#24add6"/>
  <path id="Trazado_56" data-name="Trazado 56" d="M708.792,5.7l-3.245,3.361H702.9l1.468-2.724a2.98,2.98,0,0,1,.367-.406,1.1,1.1,0,0,1,.753-.232Z" transform="translate(-570.384 -5.661)" fill="#24add6"/>
</svg>
